# xmcd CD database file
#
# Track frame offsets:
#	150
#	18375
#	45020
#	68245
#	85885
#	116420
#	134667
#	160937
#	182255
#	197980
#	215245
#	237980
#	256167
#	278407
#	297232
#
# Disc length: 4253 seconds
#
# Revision: 4
# Processed by: cddbd v1.4PL0 Copyright (c) Steve Scherf et al.
# Submitted via: CDex 1.40Beta9
#
DISCID=d2109b0f
DTITLE=Elton John - Love Songs
DYEAR=1996
DGENRE=Rock
TTITLE0=Can You Feel The Love Tonight
TTITLE1=The One
TTITLE2=Sacrifice
TTITLE3=Daniel
TTITLE4=Someone Saved My Life Tonight
TTITLE5=Your Song
TTITLE6=Don't Let The Sun Go Down On Me (duet with George Michael)
TTITLE7=Believe
TTITLE8=Blue Eyes
TTITLE9=Sorry Seems To Be The Hardest Word
TTITLE10=Blessed
TTITLE11=Candle In The Wind (Live)
TTITLE12=You Can Make History (Young Again)
TTITLE13=No Valentines
TTITLE14=Circle Of Life
EXTD=September 24, 1996 YEAR: 1996 ID3G: 17
EXTT0=
EXTT1=
EXTT2=
EXTT3=
EXTT4=
EXTT5=
EXTT6=
EXTT7=
EXTT8=
EXTT9=
EXTT10=
EXTT11=
EXTT12=
EXTT13=
EXTT14=
PLAYORDER=
